<svg width="154" height="32" viewBox="0 0 154 32" fill="none" xmlns="http://www.w3.org/2000/svg">
<path fill-rule="evenodd" clip-rule="evenodd" d="M37.8012 8.4095L25.0177 15.9535L31.768 5.00003C29.8165 3.80711 27.6543 3.17632 25.0017 3.17153C17.9065 3.16674 12.1176 8.80873 12.1448 15.9758C12.1176 23.1189 17.9177 28.8504 25.0321 28.8504C29.6648 28.8504 33.7338 26.4118 36.0079 22.7389L36.6099 24.6201C33.4751 28.7705 27.5696 32.0075 19.767 32.0011C6.9499 31.9979 -0.00637527 24.2192 -0.00158444 15.9758C-0.00637527 7.70844 7.29484 0.00479083 19.767 0C28.5118 0 34.1043 3.2354 37.7996 8.4095H37.8012Z" fill="white"/>
<path fill-rule="evenodd" clip-rule="evenodd" d="M95.3262 31.1954H85.9218V12.4857C85.9218 11.1953 84.8742 10.1382 83.5855 10.1382C82.284 10.1382 81.238 11.1953 81.238 12.4857L81.2444 31.1954H71.8703V10.1382H65.6167L74.625 5.86155C75.2431 5.6236 75.8563 5.45912 76.5589 5.45912C78.9017 5.45912 80.8419 7.17743 81.1901 9.41794L88.6606 5.8855C89.2626 5.64915 89.9142 5.45752 90.612 5.45752C93.1975 5.45752 95.3278 7.5559 95.3278 10.1302V31.1922L95.3262 31.1954Z" fill="white"/>
<path fill-rule="evenodd" clip-rule="evenodd" d="M63.2996 11.2238L68.8761 31.2079H59.4989L58.2836 26.7924C56.3529 29.5535 52.4564 31.7892 47.6624 31.7796C43.3634 31.7892 37.9562 28.4229 37.9402 23.3574C37.9546 18.3078 43.3634 15.0038 47.6783 14.9894C50.7381 15.0038 53.4672 15.7926 55.703 17.5637L53.6094 10.1043H41.4391L52.4516 6.02894C58.0026 3.9625 62.3814 7.81113 63.2996 11.2254V11.2238ZM52.3254 28.1945C54.9732 28.1945 57.1258 26.0482 57.1258 23.3941C57.1258 20.7464 54.9732 18.5985 52.3254 18.5985C49.6713 18.5985 47.5139 20.7464 47.5139 23.3941C47.5139 26.0482 49.6729 28.1945 52.3254 28.1945Z" fill="white"/>
<path fill-rule="evenodd" clip-rule="evenodd" d="M98.4418 18.7256C98.4418 11.4036 104.384 5.46143 111.716 5.46143C119.054 5.46143 124.997 11.4036 124.997 18.7256C124.997 26.0524 119.054 31.985 111.716 31.985C104.384 31.985 98.4418 26.0524 98.4418 18.7256ZM114.825 29.9921C116.399 29.5369 117.247 28.031 116.829 26.4804L112.171 9.41386C111.764 7.90315 110.246 6.99928 108.645 7.44802C107.144 7.86642 106.246 9.3899 106.682 10.9533L111.363 28.0134C111.754 29.5465 113.298 30.3977 114.825 29.9921Z" fill="white"/>
<path fill-rule="evenodd" clip-rule="evenodd" d="M153.915 31.2078H144.499L144.504 12.4932C144.504 11.2029 143.458 10.1505 142.161 10.1505C140.868 10.1505 139.814 11.2029 139.814 12.4932L139.819 31.2078H130.446V10.1505H124.197L133.201 5.87386C133.819 5.63113 134.443 5.47303 135.135 5.47303C137.476 5.47303 139.423 7.18655 139.766 9.43185L147.236 5.89463C147.839 5.66147 148.49 5.47144 149.188 5.47144C151.783 5.47144 153.915 7.56503 153.915 10.1393V31.2078Z" fill="white"/>
</svg>
