<svg width="66" height="66" viewBox="0 0 66 66" fill="none" xmlns="http://www.w3.org/2000/svg">
<path d="M52.9682 22.9066H47.7138L40.3547 43.0993H45.6091L52.9682 22.9066ZM33.0015 66.0015C32.6727 66.0015 32.3469 65.9956 32.021 65.9868L38.7666 47.4525H48.0484C49.6776 47.4525 51.4653 46.1991 52.023 44.6698L59.341 24.5709C60.5386 21.2803 58.6541 18.5885 55.1521 18.5885H42.2745L31.4721 48.2774H31.4662L25.34 65.1062C10.8097 61.6512 0.00146484 48.5885 0.00146484 33.0015C0.00146484 17.8635 10.1932 5.10616 24.0925 1.21673L17.7725 18.5885H17.7696L7.26369 47.4525H14.2588L23.1942 22.9271H28.4486L19.5132 47.4525L26.5054 47.4555L34.8332 24.5739C36.0308 21.2833 34.1463 18.5915 30.6473 18.5915H24.7676L31.5191 0.0366899C32.0122 0.0161419 32.5054 0.00146484 33.0015 0.00146484C51.2275 0.00146484 66.0044 14.7754 66.0044 33.0015C66.0044 51.2275 51.2275 66.0015 33.0015 66.0015Z" fill="white"/>
</svg>
