<svg width="212" height="58" viewBox="0 0 212 58" fill="none" xmlns="http://www.w3.org/2000/svg">
<path fill-rule="evenodd" clip-rule="evenodd" d="M13.0562 10.8346V10.7532H0V23.8095L13.0562 10.8346Z" fill="white"/>
<path fill-rule="evenodd" clip-rule="evenodd" d="M26.0308 23.8095H26.1126V10.7532H13.0563V10.8346L26.0308 23.8095Z" fill="white"/>
<path fill-rule="evenodd" clip-rule="evenodd" d="M26.1126 23.8096H26.0308L13.0563 36.8658H26.1126V23.8096Z" fill="white"/>
<path fill-rule="evenodd" clip-rule="evenodd" d="M0 23.8096V36.8658H13.0562L0 23.8096Z" fill="white"/>
<path fill-rule="evenodd" clip-rule="evenodd" d="M13.0563 36.8658L26.0308 23.8096H13.0563V36.8658Z" fill="white"/>
<path fill-rule="evenodd" clip-rule="evenodd" d="M13.0563 23.8087H26.0308L13.0563 10.8337V23.8087Z" fill="white"/>
<path fill-rule="evenodd" clip-rule="evenodd" d="M13.1367 10.7527L23.0934 0.797607H35.9042V13.6093L26.0309 23.4825V10.7527H13.1369H13.1367ZM25.867 23.6463L25.623 23.8903L25.7872 24.0529L13.0563 36.7833V10.9142L25.867 23.6461V23.6463ZM26.0308 24.295L35.7414 33.9275V46.6573H22.7675L13.0564 36.9467V36.8653H26.0308V24.295Z" fill="white"/>
<path fill-rule="evenodd" clip-rule="evenodd" d="M26.0307 23.8096L12.9744 36.8658V23.8096H26.0307Z" fill="white"/>
<path fill-rule="evenodd" clip-rule="evenodd" d="M12.9744 10.8337L26.0307 23.8087H12.9744V10.8337Z" fill="white"/>
<path fill-rule="evenodd" clip-rule="evenodd" d="M44.0648 36.4568H48.4712V11.1604H44.0648V36.4568Z" fill="white"/>
<path fill-rule="evenodd" clip-rule="evenodd" d="M62.4249 36.4574L53.6122 23.7276L62.4249 11.1604H58.0185L49.1241 23.7276L58.0185 36.4574H62.4249Z" fill="white"/>
<path fill-rule="evenodd" clip-rule="evenodd" d="M99.2274 11.1604H86.1712C84.7022 11.1604 83.6416 12.2211 83.6416 13.6092V33.9279C83.6416 35.315 84.7023 36.4574 86.1712 36.4574H99.2274C100.614 36.4574 101.757 35.315 101.757 33.9279V13.6092C101.757 12.2211 100.614 11.1604 99.2274 11.1604ZM97.5953 31.3981C97.5953 32.1323 97.0237 32.7039 96.3709 32.7039H89.3537C88.619 32.7039 88.0479 32.1323 88.0479 31.3981V16.1388C88.0479 15.4858 88.619 14.9149 89.3537 14.9149H96.3709C97.0239 14.9149 97.5953 15.486 97.5953 16.1388V31.3981Z" fill="white"/>
<path fill-rule="evenodd" clip-rule="evenodd" d="M140.517 12.3852V36.4573H144.353V14.9148H152.595C153.329 14.9148 153.9 15.4858 153.9 16.22V20.3823C153.9 21.1165 153.329 21.6875 152.595 21.6875H146.311L146.475 21.7694L154.879 36.4574H159.53L153.166 25.4411H155.45C156.838 25.4411 157.98 24.2987 157.98 22.9115V13.6911C157.98 12.2211 156.838 11.1604 155.45 11.1604H140.517V12.3854L140.517 12.3852Z" fill="white"/>
<path fill-rule="evenodd" clip-rule="evenodd" d="M117.669 32.7039H110.651C109.917 32.7039 109.346 32.1323 109.346 31.3981V16.1388C109.346 15.4858 109.917 14.9149 110.651 14.9149H120.606V11.1604H107.387C106 11.1604 104.857 12.2211 104.857 13.6092V33.9279C104.857 35.315 106 36.4574 107.387 36.4574H120.606V32.704H117.669V32.7039Z" fill="white"/>
<path fill-rule="evenodd" clip-rule="evenodd" d="M128.277 14.9149H138.232V11.1604H125.095C123.625 11.1604 122.565 12.2211 122.565 13.6092V33.9279C122.565 35.315 123.625 36.4574 125.095 36.4574H138.232V32.704H128.277C127.543 32.704 126.972 32.1325 126.972 31.3983V25.6867H137.334V21.6877H126.972V16.1389C126.972 15.486 127.543 14.9151 128.277 14.9151V14.9149Z" fill="white"/>
<path fill-rule="evenodd" clip-rule="evenodd" d="M76.5418 11.1604V21.9327H70.0142C69.3607 21.9327 68.7899 21.3612 68.7899 20.7089V11.1604H64.3016V23.2379C64.3016 24.625 65.4441 25.767 66.8317 25.767H76.5418V31.3983C76.5418 32.1325 75.9707 32.704 75.3175 32.704H65.0358V36.4574H78.092C79.5615 36.4574 80.6216 35.315 80.6216 33.9279V11.1604H76.5416H76.5418Z" fill="white"/>
<path fill-rule="evenodd" clip-rule="evenodd" d="M173.32 36.4579H163.61C161.641 36.4579 161.044 34.9339 161.05 33.286L161.081 24.2992C161.081 22.9121 162.223 21.7701 163.61 21.7701H173.32V16.0576C173.32 15.3234 172.832 14.7523 172.097 14.7523H161.897V10.9978H174.953C176.34 10.9978 177.482 12.1414 177.482 13.5269V36.4579H173.32H173.32ZM165.568 31.6438C165.65 32.2149 166.221 32.7045 166.793 32.7045H172.097C172.832 32.7045 173.32 32.133 173.32 31.3988V25.523H166.793C166.141 25.523 165.568 26.0946 165.568 26.8292V31.6438Z" fill="white"/>
<path fill-rule="evenodd" clip-rule="evenodd" d="M52.7142 50.4919H52.3064C52.2245 48.2069 51.0007 48.1255 50.1851 48.1255L48.0633 55.7962C47.9809 56.0407 47.8996 56.5304 47.8996 56.6936C47.8996 57.3471 48.3078 57.3471 49.1239 57.3471V57.7544H44.146V57.3471C44.7989 57.4285 45.4517 57.3471 45.6962 56.2859L47.9808 48.1255C46.5129 48.1255 45.4517 48.7784 44.6361 50.3287L44.3091 50.166L44.8807 47.636H53.2037L52.714 50.4921L52.7142 50.4919Z" fill="white"/>
<path fill-rule="evenodd" clip-rule="evenodd" d="M61.3636 55.7965C60.7932 56.7754 60.0584 57.9178 58.834 57.9178C58.1817 57.9178 57.8547 57.4286 57.8547 56.9385C57.8547 55.7965 59.2423 52.614 59.2423 52.2062C59.2423 52.043 59.1609 51.7985 58.834 51.7985C58.1817 51.7985 57.4469 53.0223 57.0391 53.6746C56.3862 54.6539 55.8967 56.4493 55.4883 57.7545H53.6934L55.9779 49.187C56.0598 48.9419 56.1417 48.6969 56.1417 48.5341C56.1417 47.9625 55.652 47.9625 55.1624 48.0444V47.6362C56.3048 47.4729 57.2022 47.3916 58.3444 47.1465L56.7127 53.3487C58.1817 51.145 59.0792 50.7368 59.8952 50.7368C60.2223 50.7368 61.0377 50.7368 61.0377 51.9617C61.0377 52.5328 59.6506 56.4495 59.6506 56.6121C59.6506 56.7754 59.8951 56.8573 59.8951 56.8573C60.2221 56.8573 60.793 55.9598 61.0375 55.6334L61.3634 55.7967L61.3636 55.7965Z" fill="white"/>
<path fill-rule="evenodd" clip-rule="evenodd" d="M68.7079 55.8777C68.3001 56.6119 67.4841 57.9176 65.8524 57.9176C64.8726 57.9176 63.5669 57.3472 63.5669 55.6331C63.5669 53.5113 65.5256 50.7366 67.9737 50.7366C68.4634 50.7366 69.5239 50.9817 69.5239 52.1242C69.5239 52.9397 68.5446 54.5718 65.6073 54.9803C65.6073 55.2254 65.5254 55.4704 65.5254 55.7149C65.5254 56.9383 66.2601 56.9383 66.5866 56.9383C67.4022 56.9383 67.8923 56.1227 68.3001 55.6331L68.7079 55.8776V55.8777ZM65.771 54.4906C67.729 54.001 68.1363 52.5326 68.1363 51.7983C68.1363 51.6345 68.1363 51.2267 67.729 51.2267C66.7497 51.2267 66.0155 53.4299 65.771 54.4905V54.4906Z" fill="white"/>
<path fill-rule="evenodd" clip-rule="evenodd" d="M84.4569 57.7544H76.052V57.3471C76.6235 57.2652 77.0313 57.1833 77.2758 56.2859L79.1526 49.4319C79.1526 49.35 79.2345 48.8603 79.2345 48.6153C79.2345 48.1257 79.0712 48.1256 78.1733 47.9624V47.636H86.3337L85.6814 50.4921L85.2731 50.4107C85.2731 49.2683 85.2731 48.1256 82.4176 48.1256C81.7642 48.1256 81.683 48.3708 81.5197 48.7786L80.6218 52.1242C82.8249 52.2061 83.0701 51.7983 83.7229 50.4921L84.1307 50.5735L83.0699 54.7353L82.5803 54.6539C82.6621 54.4094 82.6621 54.2456 82.6621 54.0829C82.6621 52.9398 82.1725 52.6139 80.4585 52.6139L79.6429 55.7964C79.5615 56.1228 79.3978 56.6119 79.3978 56.6938C79.3978 57.0202 79.5615 57.2654 80.3771 57.2654C82.1725 57.2654 83.886 56.6119 84.9467 54.7353L85.355 54.8172L84.457 57.7545L84.4569 57.7544Z" fill="white"/>
<path fill-rule="evenodd" clip-rule="evenodd" d="M97.2687 50.9002L96.7785 50.8184C96.7785 50.6557 96.8604 50.492 96.8604 50.3287C96.8604 48.8604 96.1262 47.881 94.8205 47.881C92.3722 47.881 90.5774 51.7982 90.5774 54.4905C90.5774 57.1834 92.5355 57.1834 92.7806 57.1834C94.0045 57.1834 94.9838 56.857 96.0443 55.4703L96.534 55.7962C95.7184 56.9382 94.3313 57.9994 92.3722 57.9994C90.4142 57.9994 88.2922 56.857 88.2922 54.0827C88.2922 50.7365 90.8218 47.3914 94.494 47.3914C95.7997 47.3914 96.6157 47.7996 97.0235 47.7996C97.3499 47.7996 97.4318 47.6359 97.5951 47.3914H98.0842L97.2687 50.9002Z" fill="white"/>
<path fill-rule="evenodd" clip-rule="evenodd" d="M105.918 47.3914C107.551 47.3914 109.59 48.3707 109.59 50.9816C109.59 53.9195 106.897 57.9994 103.144 57.9994C100.614 57.9994 99.5532 56.1226 99.5532 54.5719C99.5532 50.9004 102.572 47.3914 105.918 47.3914H105.918ZM101.675 55.4703C101.675 57.0201 102.409 57.5097 103.307 57.5097C106 57.5097 107.387 51.5532 107.387 49.7578C107.387 49.4319 107.387 47.881 105.837 47.881C103.063 47.881 101.675 54.0827 101.675 55.4703Z" fill="white"/>
<path fill-rule="evenodd" clip-rule="evenodd" d="M119.301 57.7544H110.977V57.3471C111.631 57.2652 111.875 57.1833 112.12 56.2859L113.996 49.4319C113.996 49.4319 114.16 48.7784 114.16 48.6153C114.16 48.1257 113.996 48.1256 113.099 47.9624V47.636H117.832V47.9624C117.015 48.0443 116.607 48.1256 116.363 49.1048L114.405 56.2859C114.323 56.6118 114.323 56.6936 114.323 56.775C114.323 56.9383 114.323 57.2652 115.302 57.2652C117.098 57.2652 118.811 56.6118 119.872 54.7352L120.199 54.817L119.301 57.7544H119.301Z" fill="white"/>
<path fill-rule="evenodd" clip-rule="evenodd" d="M128.685 56.0407C128.113 56.8567 127.298 57.9993 126.4 57.9993C126.074 57.9993 125.34 57.7542 125.34 56.9381C125.34 56.6936 125.421 56.4489 125.584 56.0407H125.503C125.095 56.6936 124.359 57.9175 123.054 57.9175C121.586 57.9175 121.422 56.4491 121.422 55.9594C121.422 53.7563 123.707 50.7366 125.584 50.7366C126.482 50.7366 126.645 51.39 126.645 51.7983H126.726L126.971 50.9003L128.685 50.8185L127.543 54.4092C127.379 55.1434 127.053 56.1227 127.053 56.6938C127.053 56.8571 127.216 56.8571 127.298 56.8571C127.543 56.8571 127.95 56.3674 128.359 55.7963L128.685 56.0408L128.685 56.0407ZM126.319 52.124C126.319 51.4717 125.911 51.3898 125.747 51.3898C124.522 51.3898 123.299 54.9801 123.299 56.0407C123.299 56.6936 123.788 56.8567 123.952 56.8567C125.258 56.8567 126.319 53.2665 126.319 52.124Z" fill="white"/>
<path fill-rule="evenodd" clip-rule="evenodd" d="M135.213 53.1042L134.805 53.0223C134.723 52.2876 134.397 51.2269 133.5 51.2269C132.684 51.2269 132.684 51.9615 132.684 52.0429C132.684 53.0223 134.805 54.328 134.805 55.8777C134.805 57.3472 133.5 57.9176 132.521 57.9176C131.868 57.9176 131.459 57.6731 131.134 57.6731C131.051 57.6731 130.724 57.6731 130.644 57.9176H130.235L130.563 55.4704H130.969C131.214 57.5098 132.357 57.5098 132.439 57.5098C133.01 57.5098 133.336 57.0202 133.336 56.6938C133.336 56.286 132.928 55.6331 132.439 55.0622C131.703 54.1642 131.295 53.5932 131.295 52.6138C131.295 51.3081 132.275 50.7366 133.336 50.7366C134.07 50.7366 134.234 51.063 134.723 51.063C134.968 51.063 135.05 50.9816 135.131 50.7366H135.621L135.213 53.104L135.213 53.1042Z" fill="white"/>
<path fill-rule="evenodd" clip-rule="evenodd" d="M142.884 55.8777C142.476 56.6119 141.66 57.9176 140.028 57.9176C139.049 57.9176 137.742 57.3472 137.742 55.6331C137.742 53.5113 139.702 50.7366 142.149 50.7366C142.639 50.7366 143.699 50.9817 143.699 52.1242C143.699 52.9397 142.72 54.5718 139.783 54.9803C139.783 55.2254 139.702 55.4704 139.702 55.7149C139.702 56.9383 140.436 56.9383 140.762 56.9383C141.578 56.9383 142.068 56.1227 142.475 55.6331L142.884 55.8776L142.884 55.8777ZM139.947 54.4906C141.905 54.001 142.312 52.5326 142.312 51.7983C142.312 51.6345 142.312 51.2267 141.905 51.2267C140.926 51.2267 140.191 53.4299 139.947 54.4905V54.4906Z" fill="white"/>
<path fill-rule="evenodd" clip-rule="evenodd" d="M145.984 51.1448C147.535 51.063 148.024 50.9816 149.085 50.7366L148.187 53.4299L148.269 53.5113C148.759 52.5324 149.656 50.7366 150.637 50.7366C150.717 50.7366 151.533 50.7366 151.533 51.7164C151.533 52.4506 151.125 52.8583 150.637 52.8583C150.064 52.8583 149.901 52.2873 149.738 52.2873C149.248 52.2873 148.514 53.7563 148.187 54.5718C147.78 55.6331 147.616 56.3672 147.127 57.7543H145.332C146.065 54.9801 146.801 52.4506 146.801 51.9615C146.801 51.6345 146.556 51.5533 145.984 51.5533V51.145L145.984 51.1448Z" fill="white"/>
<path fill-rule="evenodd" clip-rule="evenodd" d="M159.448 47.636H163.773C165.405 47.636 167.038 48.0443 167.038 50.0024C167.038 51.9616 165.079 52.9398 163.039 52.9398C162.468 52.9398 162.223 52.9398 161.652 52.8584L160.836 55.8776C160.755 56.1228 160.673 56.6118 160.673 56.6936C160.673 57.2652 160.999 57.3471 161.815 57.3471V57.7544H157.327V57.3471C157.898 57.2652 158.307 57.1833 158.55 56.2859L160.428 49.4319C160.428 49.35 160.591 48.8603 160.591 48.6153C160.591 48.1257 160.346 48.1256 159.448 47.9624V47.636H159.448ZM161.815 52.3687C162.06 52.3687 162.223 52.4506 162.386 52.4506C163.528 52.4506 163.855 52.0428 164.181 51.7164C164.671 51.1449 164.834 50.0024 164.834 49.5128C164.834 49.1869 164.834 48.1256 163.529 48.1256C162.958 48.1256 162.876 48.452 162.794 48.7786L161.816 52.3689L161.815 52.3687Z" fill="white"/>
<path fill-rule="evenodd" clip-rule="evenodd" d="M168.588 51.1448C170.138 51.063 170.628 50.9816 171.689 50.7366L170.791 53.4299L170.873 53.5113C171.362 52.5324 172.26 50.7366 173.239 50.7366C173.32 50.7366 174.137 50.7366 174.137 51.7164C174.137 52.4506 173.648 52.8583 173.239 52.8583C172.667 52.8583 172.505 52.2873 172.342 52.2873C171.853 52.2873 171.118 53.7563 170.791 54.5718C170.383 55.6331 170.22 56.3672 169.73 57.7543H167.854C168.67 54.9801 169.404 52.4506 169.404 51.9615C169.404 51.6345 169.159 51.5533 168.588 51.5533V51.145L168.588 51.1448Z" fill="white"/>
<path fill-rule="evenodd" clip-rule="evenodd" d="M178.951 55.7962C178.135 57.0201 177.482 57.9175 176.421 57.9175C175.524 57.9175 175.361 57.2652 175.361 56.8568C175.361 56.2045 176.503 52.4505 176.503 52.0427C176.503 51.553 176.095 51.553 175.606 51.553V51.1448C176.259 51.1448 177.645 50.9815 178.706 50.7365C178.135 52.9396 177.156 56.1226 177.156 56.6118C177.156 56.7751 177.319 56.857 177.401 56.857C177.809 56.857 178.298 56.0409 178.625 55.6331L178.951 55.7964V55.7962ZM178.298 47.3914C178.869 47.3914 179.277 47.881 179.277 48.3707C179.277 48.9417 178.869 49.4319 178.298 49.4319C177.564 49.4319 177.237 48.7785 177.237 48.3707C177.237 48.0443 177.564 47.3914 178.298 47.3914Z" fill="white"/>
<path fill-rule="evenodd" clip-rule="evenodd" d="M188.254 55.8776C187.765 56.6936 187.029 57.9175 185.807 57.9175C185.642 57.9175 184.745 57.9175 184.745 56.9381C184.745 55.7962 186.133 52.5323 186.133 52.2059C186.133 51.9614 185.969 51.7981 185.724 51.7981C185.398 51.7981 183.848 52.6137 182.46 57.7542H180.666C181.4 54.8168 182.216 52.3685 182.216 51.9614C182.216 51.5531 181.807 51.5531 181.4 51.5531V51.1448C181.726 51.1448 183.195 51.063 184.418 50.7366L183.521 53.5932C184.663 52.0429 185.479 50.7366 186.784 50.7366C187.112 50.7366 187.928 50.7366 187.928 51.9615C187.928 52.9397 186.622 56.1227 186.622 56.6119C186.622 56.6938 186.703 56.8571 186.867 56.8571C187.112 56.8571 187.52 56.286 187.928 55.7151L188.254 55.8777V55.8776Z" fill="white"/>
<path fill-rule="evenodd" clip-rule="evenodd" d="M194.619 51.5535H193.395C192.905 53.4303 192.088 56.1231 192.088 56.6121C192.088 56.7754 192.252 56.8573 192.334 56.8573C192.66 56.8573 193.312 55.9599 193.477 55.6335L193.803 55.7967C193.231 56.6942 192.497 57.918 191.354 57.918C190.212 57.918 190.212 56.9387 190.212 56.8573C190.212 56.2862 190.946 54.0012 191.599 51.5535H190.865V51.0634C191.436 50.8189 192.578 50.3292 193.64 48.7788H194.13L193.559 50.9006H194.619V51.5535H194.619Z" fill="white"/>
<path fill-rule="evenodd" clip-rule="evenodd" d="M201.064 55.8777C200.575 56.6119 199.841 57.9176 198.209 57.9176C197.148 57.9176 195.924 57.3472 195.924 55.6331C195.924 53.5113 197.801 50.7366 200.331 50.7366C200.82 50.7366 201.881 50.9817 201.881 52.1242C201.881 52.9397 200.902 54.5718 197.964 54.9803C197.882 55.2254 197.882 55.4704 197.882 55.7149C197.882 56.9383 198.617 56.9383 198.862 56.9383C199.678 56.9383 200.249 56.1227 200.657 55.6331L201.064 55.8776V55.8777ZM198.046 54.4906C200.087 54.001 200.493 52.5326 200.493 51.7983C200.493 51.6345 200.493 51.2267 200.004 51.2267C199.106 51.2267 198.291 53.4299 198.046 54.4905V54.4906Z" fill="white"/>
<path fill-rule="evenodd" clip-rule="evenodd" d="M204.166 51.1448C205.716 51.063 206.205 50.9816 207.185 50.7366L206.369 53.4299L206.451 53.5113C206.858 52.5324 207.757 50.7366 208.818 50.7366C208.818 50.7366 209.634 50.7366 209.634 51.7164C209.634 52.4506 209.226 52.8583 208.735 52.8583C208.245 52.8583 208.083 52.2873 207.839 52.2873C207.429 52.2873 206.614 53.7563 206.287 54.5718C205.961 55.6331 205.798 56.3672 205.308 57.7543H203.432C204.248 54.9801 204.982 52.4506 204.982 51.9615C204.982 51.6345 204.737 51.5533 204.166 51.5533V51.145L204.166 51.1448Z" fill="white"/>
<path fill-rule="evenodd" clip-rule="evenodd" d="M212 56.8578C212 57.4293 211.51 57.9185 210.858 57.9185C210.205 57.9185 209.797 57.4293 209.797 56.8578C209.797 56.2055 210.205 55.7158 210.858 55.7158C211.511 55.7158 212 56.2055 212 56.8578Z" fill="white"/>
</svg>
