<svg width="192" height="30" viewBox="0 0 192 30" fill="none" xmlns="http://www.w3.org/2000/svg">
<path d="M7.29684 7.95038C7.16466 7.39738 7.19434 6.81202 7.26717 6.50989C7.456 5.63589 8.04945 4.65938 9.77858 4.65938C11.3836 4.65938 12.3304 5.65747 12.3304 7.15191C12.3304 7.65904 12.3304 8.85136 12.3304 8.85136H19.1768V6.92262C19.1768 0.952964 13.7925 0.000732422 9.91345 0.000732422C5.039 0.000732422 1.05474 1.61926 0.326402 6.10256C0.126784 7.33264 0.0917163 8.41435 0.380353 9.80359C1.56997 15.4145 11.3243 17.0384 12.7432 20.5883C13.0102 21.2492 12.9293 22.0963 12.7971 22.6142C12.5732 23.5368 11.9528 24.4674 10.1158 24.4674C8.40013 24.4674 7.37507 23.4693 7.37507 21.9695L7.36428 19.3286H0V21.4273C0 27.5642 4.8205 29.4093 9.9782 29.4093C14.9363 29.4093 19.0096 27.7206 19.6758 23.1267C20.0049 20.7583 19.7595 19.218 19.6462 18.6326C18.4889 12.8734 8.07913 11.1658 7.29684 7.95308V7.95038ZM96.5638 8.01782C96.4424 7.47561 96.4775 6.90104 96.5395 6.59891C96.7364 5.71951 97.3272 4.76189 99.0266 4.76189C100.613 4.76189 101.541 5.74919 101.541 7.23283C101.541 7.73457 101.541 8.9107 101.541 8.9107H108.309V6.99815C108.309 1.08514 103.006 0.154492 99.1669 0.154492C94.3329 0.154492 90.3837 1.74874 89.6635 6.19698C89.472 7.40817 89.4261 8.48179 89.7282 9.85484C90.9043 15.4037 100.564 17.0114 101.964 20.5209C102.212 21.1845 102.142 22.0342 102.016 22.5333C101.805 23.4477 101.19 24.3649 99.3692 24.3649C97.6617 24.3649 96.6339 23.383 96.6339 21.902L96.6312 19.2692H89.3479V21.3625C89.3479 27.4293 94.1009 29.2609 99.2182 29.2609C104.12 29.2609 108.169 27.5858 108.819 23.0458C109.129 20.6989 108.894 19.1721 108.77 18.5949C107.634 12.9031 97.3407 11.1928 96.5611 8.01512L96.5638 8.01782ZM158.89 22.973L152.427 0.874735H142.241V28.0362H148.98L148.589 5.23126L155.529 28.0362H165.297V0.874735H158.515L158.89 22.973ZM29.387 0.874735L24.3021 28.3222H31.7177L35.5482 2.91138L39.2869 28.3222H46.6512L41.5879 0.874735H29.387ZM70.8455 0.874735L67.3818 22.331L63.9209 0.874735H52.7234L52.1299 28.3222H58.9898L59.1759 2.91138L63.8966 28.3222H70.8562L75.5796 2.91138L75.7658 28.3222H82.6445L82.0294 0.874735H70.8455V0.874735ZM134.629 0.874735H127.688V21.1818C127.699 21.5352 127.688 21.9317 127.626 22.2231C127.48 22.9055 126.903 24.2165 124.988 24.2165C123.097 24.2165 122.503 22.9055 122.371 22.2231C122.301 21.9317 122.293 21.5352 122.301 21.1818V0.874735H115.36V20.5506C115.352 21.0577 115.393 22.0936 115.422 22.366C115.902 27.494 119.941 29.1584 124.988 29.1584C130.043 29.1584 134.081 27.494 134.569 22.366C134.607 22.0963 134.658 21.0577 134.629 20.5506V0.874735ZM182.292 12.9165V16.9197H185.105V20.8905C185.113 21.2438 185.094 21.6269 185.032 21.9344C184.922 22.6762 184.218 23.936 182.219 23.936C180.233 23.936 179.543 22.6735 179.421 21.9344C179.37 21.6269 179.349 21.2465 179.349 20.8905V8.34422C179.349 7.90182 179.378 7.41627 179.473 7.0467C179.608 6.37771 180.201 5.05862 182.2 5.05862C184.299 5.05862 184.825 6.44785 184.943 7.0467C185.021 7.44324 185.027 8.10684 185.027 8.10684V9.62825H191.941V8.72727C191.941 8.72727 191.97 7.78853 191.887 6.90913C191.366 1.75953 187.126 0.130214 182.259 0.130214C177.385 0.130214 173.231 1.77571 172.624 6.90913C172.57 7.3785 172.486 8.22283 172.486 8.72727V20.2673C172.486 20.7691 172.502 21.1602 172.597 22.0774C173.047 27.084 177.387 28.859 182.24 28.859C187.126 28.859 191.434 27.084 191.892 22.0774C191.973 21.1575 191.981 20.7691 191.992 20.2673V12.9138H182.283L182.292 12.9165Z" fill="white"/>
</svg>
