<?xml version="1.0" standalone="no"?>
<!DOCTYPE svg PUBLIC "-//W3C//DTD SVG 20010904//EN"
 "http://www.w3.org/TR/2001/REC-SVG-20010904/DTD/svg10.dtd">
<svg version="1.0" xmlns="http://www.w3.org/2000/svg"
 width="120.000000pt" height="120.000000pt" viewBox="0 0 120.000000 120.000000"
 preserveAspectRatio="xMidYMid meet">

<g transform="translate(0.000000,120.000000) scale(0.100000,-0.100000)"
fill="#000000" stroke="none">
<path d="M652 1193 c-14 -5 -52 -75 -52 -95 0 -7 -7 -26 -16 -43 -12 -22 -16
-58 -16 -133 0 -88 -2 -103 -15 -98 -8 3 -17 6 -19 6 -2 0 -4 8 -5 18 0 11 -4
8 -10 -9 -9 -25 -14 -26 -62 -24 -77 4 -85 7 -52 15 24 5 15 8 -40 11 -59 3
-78 0 -118 -20 -27 -13 -50 -29 -52 -35 -2 -6 -6 -73 -9 -148 l-6 -138 25 0
c36 0 32 -25 -10 -61 -44 -39 -47 -77 -7 -111 39 -33 45 -53 21 -74 l-21 -19
22 -17 c20 -17 21 -19 7 -93 -8 -41 -20 -81 -26 -89 -21 -26 13 -39 82 -33 54
6 295 7 482 3 53 -1 60 1 60 18 0 13 -16 28 -50 45 l-50 26 -23 90 c-12 50
-25 114 -29 143 -5 44 -3 52 11 52 9 0 16 -3 16 -7 1 -52 23 -180 36 -205 49
-98 147 -88 173 19 7 26 16 62 20 80 5 17 6 53 3 78 -4 43 -2 49 23 69 24 19
28 30 27 63 -2 51 -17 91 -44 120 -27 29 -26 102 3 157 17 34 18 41 6 53 -12
12 -18 10 -41 -17 -15 -19 -26 -43 -25 -58 l1 -27 7 27 c7 32 35 68 53 68 8 0
9 -3 3 -8 -16 -11 -35 -60 -35 -92 0 -39 -9 -60 -24 -54 -8 3 -11 16 -9 32 2
15 -6 0 -18 -33 -12 -33 -28 -67 -35 -76 -8 -8 -14 -19 -14 -24 0 -5 6 0 14
11 15 19 15 19 30 -1 14 -18 15 -18 16 -2 0 10 8 17 19 17 20 0 45 -23 35 -33
-3 -3 -2 -11 2 -18 4 -7 9 -26 11 -42 3 -25 0 -28 -24 -25 -35 4 -41 25 -11
38 22 10 22 10 -4 5 -35 -7 -39 21 -5 36 19 8 18 9 -8 3 -34 -6 -48 -22 -39
-44 14 -35 12 -79 -4 -85 -23 -9 -44 24 -37 55 6 24 6 24 -9 5 -10 -14 -18
-17 -25 -10 -11 11 1 203 20 305 33 187 17 370 -37 418 -23 21 -62 27 -92 15z
m68 -80 c21 -44 23 -186 6 -318 -9 -65 -16 -136 -16 -158 0 -21 -4 -36 -9 -32
-6 3 -8 -21 -4 -63 6 -74 -2 -91 -34 -73 -17 10 -17 10 0 11 13 0 17 9 18 38
0 20 2 53 3 72 1 19 -2 47 -7 62 -6 19 -4 35 7 57 20 37 20 41 1 41 -9 0 -20
11 -24 24 -10 24 -35 40 -71 45 -11 1 -14 64 -4 74 4 3 15 2 25 -3 10 -6 20
-6 23 -1 3 5 8 54 10 109 2 55 9 109 15 121 16 29 45 26 61 -6z m-83 -96 c4
-7 0 -8 -11 -4 -10 4 -22 7 -27 7 -5 0 -9 4 -9 9 0 12 38 2 47 -12z m-7 -17
c13 -9 13 -10 0 -10 -8 0 -22 5 -30 10 -13 9 -13 10 0 10 8 0 22 -5 30 -10z
m-10 -20 c13 -9 13 -10 0 -10 -8 0 -22 5 -30 10 -13 9 -13 10 0 10 8 0 22 -5
30 -10z m0 -20 c5 0 8 -9 7 -20 -1 -15 -7 -18 -27 -14 -23 4 -23 4 5 -11 27
-14 27 -15 5 -10 -14 2 -28 5 -32 5 -4 0 -6 9 -5 20 1 15 7 18 27 14 24 -4 24
-4 3 5 -26 12 -32 27 -7 17 9 -3 19 -6 24 -6z m-240 -145 c23 -8 58 -15 78
-15 69 1 183 -7 188 -13 4 -4 23 -288 20 -294 -1 -1 -88 5 -194 14 -154 14
-192 20 -187 30 2 8 8 77 11 154 8 156 5 152 84 124z m180 -5 c18 -12 2 -12
-25 0 -13 6 -15 9 -5 9 8 0 22 -4 30 -9z m130 -74 c0 -3 -4 -8 -10 -11 -5 -3
-10 -1 -10 4 0 6 5 11 10 11 6 0 10 -2 10 -4z m245 -160 c9 -13 18 -47 22 -76
5 -44 3 -55 -12 -66 -11 -8 -26 -14 -34 -14 -10 1 -5 7 12 16 20 11 27 22 27
45 0 44 -26 98 -52 109 l-23 9 22 0 c13 1 29 -9 38 -23z m-445 -91 c69 -8 128
-15 133 -15 4 0 7 -12 7 -27 0 -35 59 -322 71 -345 7 -13 5 -18 -5 -18 -17 0
-29 -27 -15 -36 6 -3 18 1 27 9 14 12 23 13 51 3 50 -16 52 -36 2 -36 -22 0
-50 4 -63 9 -13 5 -66 5 -123 0 l-100 -8 -67 44 c-38 25 -68 43 -68 40 0 -2
24 -20 52 -40 l53 -35 -43 0 c-60 0 -80 22 -75 80 2 25 6 80 9 123 4 42 8 77
10 77 2 0 52 -31 111 -68 115 -73 153 -95 153 -88 0 2 -56 39 -125 81 -68 43
-129 82 -134 89 -5 6 -11 48 -13 94 -2 68 0 82 12 82 8 0 71 -7 140 -15z
m-190 -35 c8 -15 6 -24 -10 -40 -23 -23 -41 -25 -58 -8 -24 24 -12 -11 13 -38
46 -50 3 -75 -46 -28 -41 39 -38 68 13 104 48 35 73 38 88 10z m373 1 c19 -8
23 -15 20 -35 -6 -31 -43 -37 -43 -7 0 11 -3 26 -6 35 -7 19 -4 19 29 7z m115
-31 c11 -18 10 -20 -13 -20 -18 0 -25 5 -25 20 0 11 6 20 13 20 7 0 18 -9 25
-20z m75 -48 c14 -77 -19 -207 -52 -207 -26 0 -51 59 -57 137 -7 75 -7 75 20
84 14 5 39 10 55 11 24 2 30 -2 34 -25z m-575 -64 c-2 -6 4 -20 14 -30 10 -10
18 -25 18 -33 0 -19 -44 -48 -66 -43 -26 5 -29 29 -5 35 11 3 18 9 15 14 -3 5
-10 7 -15 4 -5 -4 -9 5 -9 19 0 16 6 26 15 26 8 0 15 5 15 10 0 6 5 10 11 10
6 0 9 -5 7 -12z m-48 -62 c0 -2 -7 -9 -15 -16 -12 -10 -15 -10 -15 4 0 9 7 16
15 16 8 0 15 -2 15 -4z m90 -206 c0 -13 -29 -20 -81 -20 -53 0 -66 16 -21 26
15 3 31 7 36 8 17 4 66 -6 66 -14z"/>
<path d="M315 810 c-3 -5 -2 -10 4 -10 5 0 13 5 16 10 3 6 2 10 -4 10 -5 0
-13 -4 -16 -10z"/>
<path d="M350 790 c0 -5 7 -10 15 -10 8 0 15 5 15 10 0 6 -7 10 -15 10 -8 0
-15 -4 -15 -10z"/>
<path d="M610 786 c0 -2 7 -9 15 -16 9 -7 15 -8 15 -2 0 5 -7 12 -15 16 -8 3
-15 4 -15 2z"/>
<path d="M579 778 c0 -2 -2 -12 -4 -23 -8 -41 -55 -55 -123 -36 -37 11 -37 10
-17 -29 29 -57 76 -61 94 -9 5 16 14 29 20 29 16 0 53 58 41 65 -5 3 -10 5
-11 3z m-110 -85 c6 -10 11 -13 11 -6 0 18 30 4 30 -14 0 -22 -40 -12 -58 15
-8 13 -10 22 -4 22 6 0 16 -8 21 -17z"/>
<path d="M313 715 c0 -33 2 -45 4 -27 2 18 2 45 0 60 -2 15 -4 0 -4 -33z"/>
<path d="M385 750 c10 -11 20 -20 23 -20 3 0 -3 9 -13 20 -10 11 -20 20 -23
20 -3 0 3 -9 13 -20z"/>
<path d="M398 663 c7 -3 16 -2 19 1 4 3 -2 6 -13 5 -11 0 -14 -3 -6 -6z"/>
<path d="M550 635 c0 -17 5 -25 18 -24 10 0 12 3 5 6 -7 2 -13 12 -13 20 0 12
8 14 38 10 25 -5 32 -3 22 3 -8 5 -27 10 -42 10 -23 0 -28 -4 -28 -25z"/>
<path d="M302 593 c-2 -52 -1 -53 26 -52 22 1 23 2 5 6 -18 4 -23 12 -26 51
l-3 47 -2 -52z"/>
<path d="M477 619 c7 -7 15 -10 18 -7 3 3 -2 9 -12 12 -14 6 -15 5 -6 -5z"/>
<path d="M410 530 c30 -5 73 -8 95 -8 35 1 33 2 -15 8 -30 5 -73 8 -95 8 -35
-1 -33 -2 15 -8z"/>
<path d="M583 513 c15 -2 39 -2 55 0 15 2 2 4 -28 4 -30 0 -43 -2 -27 -4z"/>
<path d="M445 473 c18 -17 177 -114 181 -110 2 2 -35 28 -83 57 -102 61 -112
67 -98 53z"/>
<path d="M355 173 c33 -33 157 -134 160 -131 5 4 -127 116 -154 132 -11 6 -13
5 -6 -1z"/>
<path d="M620 146 c0 -3 14 -12 30 -21 17 -9 30 -13 30 -11 0 3 -13 12 -30 21
-16 9 -30 13 -30 11z"/>
<path d="M580 1159 c-6 -11 -10 -25 -7 -32 2 -6 9 3 15 21 12 36 8 42 -8 11z"/>
<path d="M455 960 c-3 -5 1 -10 10 -10 9 0 13 5 10 10 -3 6 -8 10 -10 10 -2 0
-7 -4 -10 -10z"/>
<path d="M500 940 c0 -5 7 -10 16 -10 8 0 12 5 9 10 -3 6 -10 10 -16 10 -5 0
-9 -4 -9 -10z"/>
<path d="M467 919 c7 -7 15 -10 18 -7 3 3 -2 9 -12 12 -14 6 -15 5 -6 -5z"/>
<path d="M512 898 c7 -15 15 -23 17 -17 2 6 -4 18 -13 27 -15 15 -15 15 -4
-10z"/>
<path d="M444 865 c-7 -17 4 -37 17 -30 12 8 12 45 -1 45 -6 0 -13 -7 -16 -15z"/>
<path d="M480 850 c0 -13 5 -20 13 -17 6 2 12 10 12 17 0 7 -6 15 -12 18 -8 2
-13 -5 -13 -18z"/>
<path d="M985 830 c-3 -5 3 -10 14 -10 12 0 21 5 21 10 0 6 -6 10 -14 10 -8 0
-18 -4 -21 -10z"/>
<path d="M986 765 c9 -14 23 -25 30 -25 21 0 17 28 -5 40 -33 17 -43 12 -25
-15z"/>
<path d="M195 270 c-3 -6 1 -7 9 -4 18 7 21 14 7 14 -6 0 -13 -4 -16 -10z"/>
</g>
</svg>
